<svg xmlns="http://www.w3.org/2000/svg" viewBox="0 0 640 480">
  <rect width="640" height="480" rx="32" fill="#fff7f5"/>
  <rect x="92" y="82" width="456" height="316" rx="28" fill="#ffffff" stroke="#eadbd8" stroke-width="8"/>
  <path d="M160 270c18-84 76-144 166-150 92-6 166 50 184 132 10 45-27 90-74 90H226c-45 0-83-38-66-72z" fill="#f2a29b"/>
  <path d="M177 243c52 16 97 16 137-1 44-18 89-15 148 14" fill="none" stroke="#fff0ed" stroke-width="34" stroke-linecap="round"/>
  <path d="M214 332c47-22 87-25 122-8 35 17 71 15 111-7" fill="none" stroke="#ca5f65" stroke-width="18" stroke-linecap="round" opacity=".58"/>
  <text x="320" y="426" text-anchor="middle" font-family="Arial, sans-serif" font-size="30" font-weight="700" fill="#8e343a">Thịt heo ba rọi</text>
</svg>
